<?xml version="1.0" encoding="UTF-8" standalone="no"?>
<svg
   xmlns:dc="http://purl.org/dc/elements/1.1/"
   xmlns:cc="http://creativecommons.org/ns#"
   xmlns:rdf="http://www.w3.org/1999/02/22-rdf-syntax-ns#"
   xmlns:svg="http://www.w3.org/2000/svg"
   xmlns="http://www.w3.org/2000/svg"
   xmlns:sodipodi="http://sodipodi.sourceforge.net/DTD/sodipodi-0.dtd"
   xmlns:inkscape="http://www.inkscape.org/namespaces/inkscape"
   data-v-423bf9ae=""
   viewBox="0 0 345 91"
   class="iconLeftSlogan"
   version="1.1"
   id="svg84"
   sodipodi:docname="logo.svg"
   inkscape:version="1.0 (4035a4fb49, 2020-05-01)">
  <metadata
     id="metadata90">
    <rdf:RDF>
      <cc:Work
         rdf:about="">
        <dc:format>image/svg+xml</dc:format>
        <dc:type
           rdf:resource="http://purl.org/dc/dcmitype/StillImage" />
      </cc:Work>
    </rdf:RDF>
  </metadata>
  <defs
     id="defs88" />
  <sodipodi:namedview
     inkscape:document-rotation="0"
     pagecolor="#ffffff"
     bordercolor="#666666"
     borderopacity="1"
     objecttolerance="10"
     gridtolerance="10"
     guidetolerance="10"
     inkscape:pageopacity="0"
     inkscape:pageshadow="2"
     inkscape:window-width="1280"
     inkscape:window-height="945"
     id="namedview86"
     showgrid="false"
     inkscape:zoom="3.2608696"
     inkscape:cx="172.5"
     inkscape:cy="45.5"
     inkscape:window-x="-9"
     inkscape:window-y="-9"
     inkscape:window-maximized="1"
     inkscape:current-layer="svg84" />
  <!---->
  <!---->
  <!---->
  <g
     data-v-423bf9ae=""
     id="d75eac3b-7302-43f3-85b0-f915c2458578"
     fill="#ffffff"
     transform="matrix(4.590665418742173,0,0,4.590665418742173,91.25384032750378,0.04590736244790605)">
    <path
       d="M8.40 1.36L8.40 1.36L11.37 1.36L11.37 10.50L9.51 10.50L9.51 3.25L7.14 10.50L5.38 10.50L2.87 3.26L2.87 10.50L1.13 10.50L1.13 1.36L4.10 1.36L6.24 8.08L8.40 1.36ZM16.23 3.12L16.23 3.12L16.23 3.12Q16.69 3.12 17.22 3.27L17.22 3.27L17.22 3.27Q17.75 3.42 18.21 3.75L18.21 3.75L18.21 3.75Q18.68 4.07 18.97 4.59L18.97 4.59L18.97 4.59Q19.26 5.11 19.25 5.85L19.25 5.85L19.25 10.50L17.88 10.50L17.88 10.50Q17.88 10.50 17.84 10.33L17.84 10.33L17.84 10.33Q17.79 10.16 17.75 9.95L17.75 9.95L17.75 9.95Q17.70 9.74 17.65 9.58L17.65 9.58L17.65 9.58Q17.61 9.42 17.61 9.44L17.61 9.44L17.61 9.44Q17.42 9.79 17.09 10.05L17.09 10.05L17.09 10.05Q16.81 10.29 16.37 10.47L16.37 10.47L16.37 10.47Q15.93 10.65 15.29 10.65L15.29 10.65L15.29 10.65Q14.84 10.65 14.41 10.52L14.41 10.52L14.41 10.52Q13.97 10.39 13.63 10.13L13.63 10.13L13.63 10.13Q13.29 9.87 13.07 9.48L13.07 9.48L13.07 9.48Q12.85 9.09 12.84 8.57L12.84 8.57L12.84 8.57Q12.81 8.02 12.99 7.59L12.99 7.59L12.99 7.59Q13.16 7.17 13.49 6.86L13.49 6.86L13.49 6.86Q13.82 6.55 14.28 6.36L14.28 6.36L14.28 6.36Q14.74 6.17 15.29 6.10L15.29 6.10L15.29 6.10Q15.81 6.03 16.42 6.03L16.42 6.03L16.42 6.03Q17.04 6.03 17.53 6.06L17.53 6.06L17.53 5.84L17.53 5.84Q17.53 5.24 17.26 4.93L17.26 4.93L17.26 4.93Q17.00 4.63 16.60 4.54L16.60 4.54L16.60 4.54Q16.20 4.45 15.72 4.52L15.72 4.52L15.72 4.52Q15.25 4.59 14.81 4.72L14.81 4.72L14.81 4.72Q14.38 4.86 14.05 5.00L14.05 5.00L14.05 5.00Q13.72 5.15 13.64 5.22L13.64 5.22L13.64 3.81L13.64 3.81Q13.65 3.79 13.89 3.69L13.89 3.69L13.89 3.69Q14.13 3.58 14.49 3.46L14.49 3.46L14.49 3.46Q14.85 3.33 15.31 3.23L15.31 3.23L15.31 3.23Q15.76 3.12 16.23 3.12ZM17.12 8.68L17.12 8.68L17.12 8.68Q17.36 8.37 17.44 7.99L17.44 7.99L17.44 7.99Q17.51 7.62 17.51 7.20L17.51 7.20L16.70 7.20L16.70 7.20Q16.38 7.20 16.02 7.24L16.02 7.24L16.02 7.24Q15.65 7.28 15.34 7.41L15.34 7.41L15.34 7.41Q15.04 7.53 14.83 7.78L14.83 7.78L14.83 7.78Q14.62 8.02 14.62 8.44L14.62 8.44L14.62 8.44Q14.62 8.90 14.96 9.11L14.96 9.11L14.96 9.11Q15.30 9.32 15.81 9.32L15.81 9.32L15.81 9.32Q16.24 9.32 16.57 9.15L16.57 9.15L16.57 9.15Q16.90 8.97 17.12 8.68ZM26.15 3.29L27.62 3.29L27.62 9.63L27.62 9.63Q27.62 10.32 27.41 10.93L27.41 10.93L27.41 10.93Q27.19 11.54 26.72 12.01L26.72 12.01L26.72 12.01Q26.25 12.47 25.52 12.76L25.52 12.76L25.52 12.76Q24.79 13.05 23.77 13.06L23.77 13.06L23.77 13.06Q23.23 13.06 22.78 12.98L22.78 12.98L22.78 12.98Q22.33 12.91 22.01 12.81L22.01 12.81L22.01 12.81Q21.63 12.70 21.32 12.54L21.32 12.54L21.46 11.05L21.46 11.05Q21.77 11.20 22.13 11.33L22.13 11.33L22.13 11.33Q22.46 11.44 22.87 11.52L22.87 11.52L22.87 11.52Q23.28 11.59 23.77 11.59L23.77 11.59L23.77 11.59Q24.36 11.59 24.73 11.43L24.73 11.43L24.73 11.43Q25.10 11.27 25.32 11.03L25.32 11.03L25.32 11.03Q25.54 10.78 25.63 10.50L25.63 10.50L25.63 10.50Q25.73 10.22 25.75 9.97L25.75 9.97L25.75 9.97Q25.77 9.73 25.76 9.56L25.76 9.56L25.76 9.56Q25.75 9.39 25.75 9.39L25.75 9.39L25.75 9.39Q25.75 9.39 25.63 9.56L25.63 9.56L25.63 9.56Q25.52 9.73 25.27 9.94L25.27 9.94L25.27 9.94Q25.02 10.15 24.61 10.32L24.61 10.32L24.61 10.32Q24.21 10.50 23.62 10.50L23.62 10.50L23.62 10.50Q22.99 10.50 22.43 10.31L22.43 10.31L22.43 10.31Q21.87 10.12 21.45 9.68L21.45 9.68L21.45 9.68Q21.03 9.24 20.78 8.53L20.78 8.53L20.78 8.53Q20.54 7.81 20.54 6.78L20.54 6.78L20.54 6.78Q20.54 5.74 20.85 5.04L20.85 5.04L20.85 5.04Q21.15 4.34 21.62 3.91L21.62 3.91L21.62 3.91Q22.08 3.49 22.62 3.30L22.62 3.30L22.62 3.30Q23.16 3.12 23.62 3.12L23.62 3.12L23.62 3.12Q24.16 3.12 24.57 3.28L24.57 3.28L24.57 3.28Q24.98 3.44 25.23 3.64L25.23 3.64L25.23 3.64Q25.49 3.84 25.63 4.00L25.63 4.00L25.63 4.00Q25.76 4.16 25.76 4.16L25.76 4.16L26.15 3.29ZM25.75 6.82L25.75 6.82L25.75 6.82Q25.75 5.68 25.30 5.13L25.30 5.13L25.30 5.13Q24.85 4.58 24.12 4.58L24.12 4.58L24.12 4.58Q23.39 4.58 22.95 5.13L22.95 5.13L22.95 5.13Q22.50 5.68 22.50 6.82L22.50 6.82L22.50 6.82Q22.50 7.95 22.95 8.50L22.95 8.50L22.95 8.50Q23.39 9.04 24.12 9.04L24.12 9.04L24.12 9.04Q24.85 9.04 25.30 8.50L25.30 8.50L25.30 8.50Q25.75 7.95 25.75 6.82ZM31.57 10.50L29.68 10.50L29.68 3.29L31.57 3.29L31.57 10.50ZM31.67 1.02L31.67 1.02L31.67 1.02Q31.67 1.47 31.36 1.78L31.36 1.78L31.36 1.78Q31.05 2.09 30.62 2.09L30.62 2.09L30.62 2.09Q30.17 2.09 29.86 1.78L29.86 1.78L29.86 1.78Q29.55 1.47 29.55 1.02L29.55 1.02L29.55 1.02Q29.55 0.59 29.86 0.29L29.86 0.29L29.86 0.29Q30.17-0.01 30.62-0.01L30.62-0.01L30.62-0.01Q31.05-0.01 31.36 0.29L31.36 0.29L31.36 0.29Q31.67 0.59 31.67 1.02ZM36.90 3.12L36.90 3.12L36.90 3.12Q37.34 3.12 37.67 3.18L37.67 3.18L37.67 3.18Q38.01 3.23 38.25 3.30L38.25 3.30L38.25 3.30Q38.51 3.39 38.74 3.49L38.74 3.49L38.74 4.82L38.74 4.82Q38.19 4.65 37.55 4.59L37.55 4.59L37.55 4.59Q36.92 4.54 36.37 4.74L36.37 4.74L36.37 4.74Q35.83 4.94 35.46 5.45L35.46 5.45L35.46 5.45Q35.10 5.95 35.10 6.89L35.10 6.89L35.10 6.89Q35.10 7.87 35.46 8.38L35.46 8.38L35.46 8.38Q35.83 8.89 36.37 9.06L36.37 9.06L36.37 9.06Q36.92 9.24 37.55 9.15L37.55 9.15L37.55 9.15Q38.19 9.06 38.74 8.85L38.74 8.85L38.74 10.23L38.74 10.23Q38.53 10.36 38.25 10.44L38.25 10.44L38.25 10.44Q38.01 10.53 37.67 10.59L37.67 10.59L37.67 10.59Q37.32 10.65 36.89 10.65L36.89 10.65L36.89 10.65Q36.34 10.65 35.69 10.51L35.69 10.51L35.69 10.51Q35.03 10.37 34.46 9.97L34.46 9.97L34.46 9.97Q33.89 9.56 33.52 8.83L33.52 8.83L33.52 8.83Q33.14 8.09 33.14 6.89L33.14 6.89L33.14 6.89Q33.14 5.70 33.52 4.96L33.52 4.96L33.52 4.96Q33.89 4.21 34.46 3.81L34.46 3.81L34.46 3.81Q35.03 3.40 35.69 3.26L35.69 3.26L35.69 3.26Q36.34 3.12 36.90 3.12ZM49.97 10.50L49.18 8.40L46.00 8.40L45.22 10.50L43.09 10.50L46.45 1.36L48.75 1.36L52.11 10.50L49.97 10.50ZM46.47 6.64L48.73 6.64L48.73 6.64Q48.73 6.64 48.62 6.34L48.62 6.34L48.62 6.34Q48.50 6.05 48.32 5.61L48.32 5.61L48.32 5.61Q48.15 5.17 47.94 4.66L47.94 4.66L47.94 4.66Q47.74 4.16 47.60 3.77L47.60 3.77L47.60 3.77Q47.28 4.56 47.03 5.19L47.03 5.19L47.03 5.19Q46.91 5.46 46.82 5.72L46.82 5.72L46.82 5.72Q46.72 5.98 46.63 6.18L46.63 6.18L46.63 6.18Q46.55 6.38 46.51 6.51L46.51 6.51L46.51 6.51Q46.47 6.64 46.47 6.64L46.47 6.64ZM53.20 1.36L55.15 1.36L55.15 10.50L53.20 10.50L53.20 1.36Z"
       id="path51" />
  </g>
  <!---->
  <g
     data-v-423bf9ae=""
     id="fd23f14c-19a6-4acc-bc7f-bd5408f51824"
     transform="matrix(1.0041890462239584,0,0,1.0041890462239584,-14.281988373208641,-4.397953137125789)"
     stroke="none"
     fill="#F6575E">
    <path
       d="M86.293 39.719c-.133-.036-.269-.059-.405-.082l-.003-.091a128.977 128.977 0 0 1-.091-4.22c0-4.386-.882-8.479-2.5-12.157.096-.168.166-.353.166-.561 0-.574-.425-1.028-.974-1.117C77.401 11.712 66.858 5.263 53.73 4.84v-.03l-1.026.005-.275-.005-.75.012v.018c-13.126.424-23.661 6.89-28.71 16.687-.458.152-.792.57-.792 1.08 0 .142.034.275.081.4-1.64 3.69-2.536 7.801-2.536 12.211 0 1.479-.059 2.962-.118 4.401a4.217 4.217 0 0 0-.488.099c-4.048 1.11-5.621 7.801-3.582 15.232 1.507 5.491 4.571 9.716 7.744 11.001.312 2.06.599 4.175.837 6.277.083.735.248 1.447.456 2.145-.058.137-.09.288-.09.446 0 .433.249.796.602.994 2.267 5.372 7.771 9.538 11.648 12.466l.05.038c.108.524.55.926 1.107.926.031 0 .057-.015.087-.018.718.551 1.349 1.053 1.824 1.491 3.416 3.142 6.374 4.269 11.881 4.444v.027l1.021-.004.28.004.75-.009v-.018c5.507-.176 8.465-1.303 11.881-4.444.475-.437 1.105-.938 1.822-1.489.028.002.052.016.081.016.554 0 .994-.398 1.104-.918l.061-.046c3.854-2.91 9.315-7.041 11.609-12.364.496-.129.868-.56.868-1.096 0-.262-.103-.492-.25-.685.173-.622.315-1.254.389-1.906.238-2.102.525-4.217.836-6.277 3.172-1.286 6.236-5.51 7.743-11.002 2.039-7.429.466-14.12-3.582-15.23zM16.979 54.554c-1.756-6.399-.596-12.531 2.533-13.389.01-.003.021-.001.031-.004-.117 3.205-.134 6.224.592 8.866.104.376.218.824.337 1.307-.141.191-.24.415-.24.67 0 .449.264.828.639 1.018.652 2.872 1.429 6.805 2.121 11.106-2.413-1.504-4.803-5.168-6.013-9.574zm62.826 17.507c-.045.398-.114.79-.203 1.178l-.149-.205-.323.235.334.458a3.925 3.925 0 0 1-.034.116c-.339.2-.578.554-.578.977 0 .016.008.03.009.045l-.822.18.086.391.804-.176c-2.107 4.952-7.335 8.938-11.06 11.75a1.146 1.146 0 0 0-.276-.056l-.078-.734-.397.042.079.74c-.479.14-.836.564-.836 1.089 0 .021.011.039.012.06-.686.53-1.296 1.02-1.777 1.462-3.287 3.023-6.004 3.974-11.627 4.066l-.264.004-.265-.003c-5.623-.092-8.34-1.042-11.627-4.066-.475-.437-1.076-.919-1.75-1.441h.003l-.082-.392-.008.001a1.135 1.135 0 0 0-1.089-.842c-.124 0-.238.034-.35.07-3.673-2.774-8.815-6.688-10.976-11.545.046-.066.102-.126.133-.202l.587.131.087-.391-.595-.133c0-.017.01-.032.01-.049 0-.525-.357-.949-.837-1.088a10.754 10.754 0 0 1-.342-1.672c-.825-7.279-2.22-14.751-3.282-19.423a1.12 1.12 0 0 0 .215-.633 1.14 1.14 0 0 0-.599-.992 57.712 57.712 0 0 0-.356-1.383c-.77-2.8-.631-6.207-.484-9.813.061-1.496.124-3.042.124-4.597 0-4.104.816-7.94 2.319-11.392l.321-.093-.03-.103c.234-.116.423-.304.533-.54l.69.342.178-.358-.771-.382c.002-.03.018-.056.018-.086 0-.135-.034-.261-.077-.381l.83-.473-.198-.348-.415.236c5.024-9.169 15.214-15.131 27.82-15.319l.17-.005.359.005c12.428.185 22.521 5.964 27.651 14.896l-.1-.054-.189.353.64.344c.082.152.165.303.244.456-.025.095-.059.187-.059.29 0 .109.034.208.062.308l-.657.32.175.359.658-.32c.105.144.234.264.394.346l-.059.191.235.073c1.511 3.466 2.331 7.318 2.331 11.441 0 1.448.047 2.882.092 4.269.12 3.678.233 7.152-.56 10.035-.102.372-.215.812-.332 1.286-.48.139-.838.563-.838 1.089 0 .337.151.634.382.845-1.057 4.684-2.422 12.041-3.234 19.211zm8.624-17.507c-1.209 4.407-3.6 8.071-6.013 9.574.705-4.385 1.499-8.392 2.159-11.277.233-.211.385-.508.385-.847 0-.151-.033-.293-.086-.425a57.91 57.91 0 0 1 .398-1.552c.729-2.652.749-5.659.662-8.847 3.099.899 4.243 7.002 2.495 13.374z"
       id="path54" />
    <path
       d="M52.704 49.163a1.13 1.13 0 0 0-.742.289l-.402-.328-.253.31.405.331a1.12 1.12 0 0 0-.16.551 1.153 1.153 0 1 0 1.152-1.153z"
       id="path56" />
    <circle
       cx="67.512"
       cy="56.988"
       r="1.152"
       id="circle58" />
    <path
       d="M65.177 39.162c0 .205.068.387.161.553l-.38.311.253.31.377-.309c.202.173.455.288.741.288a1.152 1.152 0 1 0-1.152-1.153z"
       id="path60" />
    <circle
       cx="39.038"
       cy="39.162"
       r="1.152"
       id="circle62" />
    <circle
       cx="52.728"
       cy="67.344"
       r="1.153"
       id="circle64" />
    <path
       d="M52.728 83.956c-.368 0-.681.183-.892.451l-.351-.187-.188.353.349.186a1.107 1.107 0 0 0-.071.35 1.153 1.153 0 1 0 1.153-1.153zM66.36 76.655c-.637 0-1.152.516-1.152 1.153 0 .134.034.259.077.379l-.298.159.188.353.31-.165c.207.25.507.417.856.423l.037.346.397-.042-.04-.376c.45-.157.777-.574.777-1.077a1.15 1.15 0 0 0-1.152-1.153z"
       id="path66" />
    <circle
       cx="39.038"
       cy="77.808"
       r="1.153"
       id="circle68" />
    <circle
       cx="77.208"
       cy="39.162"
       r="1.152"
       id="circle70" />
    <circle
       cx="28.108"
       cy="39.162"
       r="1.152"
       id="circle72" />
    <path
       d="M58.923 63.092c0-.153-.033-.298-.087-.431l.308-.193-.213-.339-.313.196a1.138 1.138 0 0 0-.847-.385c-.08 0-.149.03-.224.045l-.233-.588-.372.147.233.586c-.327.204-.556.549-.556.962a1.153 1.153 0 0 0 2.304 0zM48.795 63.292h.977v-.4h-.977a1.121 1.121 0 0 0-.518-.764l.224-.571-.372-.146-.225.573c-.074-.015-.143-.044-.221-.044a1.152 1.152 0 1 0 0 2.305c.566 0 1.014-.416 1.112-.953zM39.038 14.815c.565 0 1.014-.415 1.111-.952h.787v-.4h-.787c-.098-.537-.546-.952-1.111-.952a1.152 1.152 0 1 0 0 2.304zM65.905 14.72l-.048-.014-.273.962.385.109.273-.962-.297-.084c.129.05.268.084.416.084a1.152 1.152 0 1 0-.456-.095zM62.017 33.039c0-.637-.515-1.152-1.152-1.152-.566 0-1.014.415-1.112.952h-.905v.4h.905c.098.537.546.952 1.112.952a1.151 1.151 0 0 0 1.152-1.152z"
       id="path74" />
    <circle
       cx="44.847"
       cy="33.039"
       r="1.152"
       id="circle76" />
    <path
       d="M48.208 46.903l.253-.31.775.633-.253.31zM42.786 42.476l-.775-.632.253-.31.775.632zM44.586 43.434l-.253.31-.774-.633.253-.31zM45.364 44.065l.775.632-.253.31-.775-.632zM46.659 45.639l.253-.31.774.633-.253.31zM41.234 41.214l-.775-.632.253-.31.775.632zM50.53 48.801l-.774-.632.252-.31.775.633zM58.768 45.096l.773-.634.254.31-.774.633zM54.377 49.202l-.254-.31.773-.634.254.31zM56.446 46.994l.253.31-.775.632-.253-.31zM64.435 40.969l-.773.633-.254-.31.774-.633zM57.994 45.727l.253.31-.774.633-.254-.31zM62.117 42.868l-.253-.31.774-.632.253.31zM60.315 43.825l.774-.634.253.31-.774.633zM58.258 52.598l.912.411-.165.365-.911-.411zM60.823 54.195l-.912-.41.165-.365.911.41zM56.435 51.777l.911.411-.164.365-.912-.41zM63.565 55.428l.165-.364.911.41-.164.365zM55.521 51.366l-.164.365-.912-.41.164-.365zM61.906 54.243l.911.41-.164.365-.912-.41zM65.552 55.884l.912.411-.165.365-.911-.411zM76.059 54.164l.117.382-.956.293-.117-.383zM78.088 53.957l-.957.292-.117-.382.957-.293zM79.047 53.671l-.117-.382.956-.293.117.382zM80.959 53.085l-.117-.382.956-.293.117.383zM71.397 56.01l-.117-.383.956-.292.117.382zM69.366 56.217l.957-.293.117.383-.957.292zM74.146 54.748l.117.382-.957.293-.117-.382zM79.063 43.203l-.457-.89.356-.183.457.89zM80.782 45.686l.458.89-.356.182-.457-.89zM79.978 44.982l-.457-.89.355-.183.458.89zM78.04 40.35l.457.889-.355.183-.458-.89zM81.807 48.539l-.457-.89.355-.182.457.889zM82.611 49.244l.458.889-.356.183-.458-.89zM68.33 38.961h1v.4h-1zM70.33 38.961h1v.4h-1zM72.33 38.961h1v.4h-1zM74.33 38.961h1v.4h-1zM41.05 56.074l.89-.457.183.356-.89.457zM49.233 52.322l-.89.457-.182-.356.89-.457zM44.609 54.247l.89-.457.182.356-.89.457zM42.825 55.165l.89-.457.182.356-.89.457zM47.276 52.88l.183.357-.89.457-.182-.356zM50.125 51.86l-.183-.356.89-.457.182.356zM26.146 53.505l-.965-.262.105-.386.965.262zM33.865 55.605l-.965-.263.105-.386.965.263zM37.728 56.655l-.965-.262.105-.386.965.262zM34.937 55.484l.965.262-.105.386-.965-.262zM31.077 54.434l.965.262-.105.386-.965-.262zM30.005 54.555l-.965-.263.105-.386.965.263zM27.216 53.383l.965.262-.105.386-.965-.262zM24.216 52.98l-.965-.262.106-.386.964.263zM23.529 47.482l.354.185-.463.886-.355-.185zM24.343 46.781l-.355-.185.464-.886.355.185zM25.846 43.05l.464-.886.355.185-.464.886zM22.488 50.325l-.354-.186.463-.886.355.186zM26.773 41.278l.464-.886.355.186-.464.885zM25.384 43.937l.354.186-.463.886-.355-.186zM30.108 38.961h1v.4h-1zM34.108 38.961h1v.4h-1zM32.108 38.961h1v.4h-1zM36.108 38.961h1v.4h-1zM64.865 58.41l.847-.532.212.34-.847.53zM63.17 59.471l.848-.531.212.339-.847.53zM60.626 61.07l.213.339-.847.532-.213-.34zM61.474 60.53l.848-.531.212.339-.847.53zM45.424 61.107l.794.607-.243.318-.794-.608zM41.452 58.071l-.732-.561c.082-.159.14-.332.14-.522a1.151 1.151 0 1 0-2.304 0c0 .636.516 1.153 1.152 1.153.3 0 .568-.122.773-.31l.728.557.243-.317zM42.248 58.676l.794.608-.243.317-.795-.607zM43.836 59.896l.794.608-.243.318-.794-.608zM50.87 65.517l.765.644-.258.306-.765-.645zM49.344 64.226l.764.644-.257.306-.765-.645zM53.82 66.16l.764-.644.258.306-.765.644zM56.112 64.225l.257.306-.764.645-.258-.306zM52.771 62.892h1v.4h-1zM54.771 62.892h1v.4h-1zM50.771 62.892h1v.4h-1zM50.327 55.826l.372.146-.367.93-.372-.146zM49.596 57.687l.372.147-.366.93-.373-.147zM51.788 52.102l.373.147-.367.93-.372-.146zM51.058 53.964l.372.146-.366.93-.373-.146zM48.864 59.549l.372.146-.366.93-.373-.146zM55.1 55.818l.369.93-.372.147-.369-.93zM53.25 52.248l.372-.148.368.93-.372.147zM56.575 59.537l.369.93-.372.147-.369-.93zM54.363 53.96l.368.929-.372.147-.368-.93zM56.213 58.608l-.372.147-.368-.93.371-.147zM60.966 68.176l.504.863-.346.202-.504-.864zM59.11 65.786l-.505-.863.346-.202.504.864zM63.998 73.355l.505.863-.346.202-.504-.863zM62.982 71.63l.504.864-.345.201-.504-.864zM64.998 75.085l.504.863-.346.202-.504-.864zM62.478 70.768l-.346.201-.503-.864.346-.201zM59.958 66.448l.504.864-.345.201-.504-.863zM68.35 77.576l-.086-.39.977-.215.086.39zM70.304 77.148l-.086-.39.977-.215.086.39zM72.258 76.722l-.086-.391.977-.215.086.39zM74.211 76.294l-.086-.391.977-.215.086.39zM76.165 75.866l-.086-.39.976-.216.086.39zM75.01 67.612l-.589-.808.323-.235.59.808zM75.917 68.183l.589.808-.324.236-.589-.808zM77.366 70.846l-.59-.809.324-.235.589.808zM71.476 62.763l-.589-.808.324-.235.589.808zM70.027 60.102l.59.809-.324.235-.589-.808zM72.383 63.335l.59.808-.324.236-.589-.809zM69.12 59.53l-.589-.808.323-.235.59.808zM78.548 72.46l-.59-.807.324-.236.589.808zM73.238 65.187l.324-.236.588.809-.323.235zM39.056 70.975l.4.013-.032 1-.4-.013zM39.299 75.983l-.4-.013.032-1 .4.014zM39.12 68.976l.4.013-.032 1-.4-.013zM38.99 72.974l.4.013-.031 1-.4-.013zM39.184 66.977l.4.013-.032 1-.4-.013zM39.442 58.982l.4.013-.032 1-.4-.013zM39.378 60.981l.4.013-.032 1-.4-.013zM39.25 64.978l.399.013-.032 1-.4-.013zM39.313 62.98l.4.013-.032 1-.4-.013zM66.474 72.958l.4.02-.052 1-.399-.021zM66.788 66.966l.4.02-.051 1-.4-.021zM66.578 70.961l.4.02-.051 1-.4-.021zM66.683 68.964l.4.02-.051 1-.4-.021zM66.718 75.97l-.4-.02.052-1 .4.021zM67.556 59.992l-.4-.02.051-1 .4.021zM66.894 64.969l.399.02-.051 1-.4-.021zM67.103 60.975l.399.02-.051 1-.4-.021zM66.998 62.972l.399.02-.051 1-.4-.021zM43.297 70.948l-.345-.203.508-.861.345.203zM41.432 73.342l.345.203-.508.861-.344-.203zM40.764 75.26l-.506.862-.345-.202.506-.863zM45.322 67.508l-.345-.203.506-.862.345.202zM44.474 68.16l.345.202-.506.863-.345-.202zM46.499 64.712l.345.202-.506.863-.345-.203zM42.792 71.817l-.507.862-.345-.203.507-.862zM29.236 75.828l-.976-.218.087-.39.976.217zM35.09 77.134l-.975-.217.087-.39.976.216zM37.043 77.569l-.976-.217.087-.39.976.217zM33.139 76.699l-.977-.218.087-.39.976.217zM31.189 76.263l-.976-.218.087-.39.976.218zM36.767 61.04l-.315-.249.62-.785.314.248zM33.05 65.75l-.316-.25.62-.784.314.248zM35.215 62.358l.62-.785.314.249-.62.785zM34.594 63.14l.315.248-.62.786-.314-.249zM38.312 58.43l.315.249-.62.785-.314-.248zM31.497 67.067l.62-.785.314.249-.62.785zM27.78 71.777l.62-.785.314.249-.62.785zM26.853 73.598l-.314-.248.619-.785.315.248zM30.571 68.889l-.315-.248.62-.786.314.249zM29.332 70.459l-.315-.249.62-.785.314.248zM47.954 82.337l.882.471-.188.353-.882-.47zM45.12 81.278l-.882-.47.188-.353.882.47zM43.355 80.337l-.883-.47.188-.353.883.47zM49.721 83.278l.883.47-.188.353-.883-.47zM46.886 82.218l-.883-.47.189-.353.882.47zM41.591 79.396l-.882-.47.188-.353.883.47zM66.49 80.298l.397-.042.106.995-.398.042zM59.693 81.167l.883-.47.188.353-.882.47zM66.7 82.286l.398-.042.106.995-.398.042zM63.411 79.636l-.189-.353.882-.471.189.353zM67.01 85.27l-.105-.994.398-.042.105.994zM61.457 80.228l.882-.47.189.353-.883.47zM56.162 83.05l.882-.47.188.353-.882.47zM54.397 83.991l.882-.47.189.353-.883.47zM57.929 82.108l.882-.47.188.353-.882.47zM38.9 80.81l-.397-.045.112-.994.398.045zM38.456 84.785l-.398-.045.113-.994.397.045zM38.678 82.797l-.397-.044.112-.994.398.045zM38.233 86.773l-.398-.045.112-.994.398.045zM49.837 85.919l-.082-.392.979-.205.082.392zM45.922 86.739l-.082-.392.978-.205.082.392zM40.05 87.967l-.083-.391.98-.205.081.391zM47.88 86.328l-.082-.391.979-.205.082.391zM43.965 87.148l-.082-.392.979-.205.082.392zM42.007 87.558l-.082-.392.979-.205.082.392zM61.478 87.075l-.98-.199.08-.392.98.199zM59.53 86.681l-.98-.198.079-.392.98.198zM57.565 86.279l-.98-.198.079-.393.98.199zM55.598 85.885l-.98-.199.08-.392.98.199zM63.45 87.475l-.98-.198.08-.392.98.198zM65.411 87.872l-.98-.198.08-.392.98.198zM42.626 35.672l-.688.726-.29-.275.688-.726zM40.957 36.85l.29.276-.688.725-.29-.275zM43.314 34.945l-.29-.276.688-.725.29.275zM63.513 36.314l-.666-.747.298-.266.666.746zM62.184 34.817l-.666-.746.298-.266.667.746zM64.482 36.792l.666.746-.298.266-.667-.745zM46.848 32.839h1v.4h-1zM54.848 32.839h1v.4h-1zM50.848 32.839h1v.4h-1zM52.848 32.839h1v.4h-1zM48.848 32.839h1v.4h-1zM56.848 32.839h1v.4h-1zM64.551 31.467l-.175-.36.9-.438.174.36zM69.946 28.842l-.175-.36.9-.437.174.36zM73.543 27.092l-.175-.36.9-.437.174.36zM75.342 26.217l-.175-.36.899-.437.175.36zM62.753 32.342l-.175-.36.9-.437.174.36zM68.868 28.924l.175.36-.9.438-.174-.36zM71.745 27.968l-.175-.36.9-.437.174.36zM79.834 24.03l-.9.438-.174-.36.899-.437zM77.14 25.342l-.175-.36.9-.437.174.36zM67.07 29.8l.175.36-.9.437-.174-.36zM79.669 30.499l.382.118-.296.955-.382-.118zM78.782 33.368l.294-.956.382.118-.294.956zM81.434 24.765l.383.118-.296.955-.382-.118zM79.965 29.544l.295-.956.382.118-.295.956zM77.986 37.312l-.382-.118.296-.955.382.118zM80.846 26.677l.382.118-.295.955-.382-.118zM78.49 34.322l.383.118-.296.955-.382-.118zM24.972 27.576l-.385.111-.278-.96.385-.112zM26.082 31.419l-.385.111-.278-.96.385-.112zM26.25 33.456l-.278-.961.386-.111.277.96zM27.747 37.184l-.386.112-.277-.961.385-.111zM26.805 35.374l-.278-.96.385-.111.277.96zM25.248 28.539l.277.96-.385.112-.277-.96zM24.14 24.694l.276.96-.385.111-.277-.96zM34.011 27.88l-.896-.444.178-.358.896.444zM34.907 28.327l.178-.359.896.445-.178.358zM30.43 26.102l-.896-.445.178-.359.895.445zM26.846 24.322l-.896-.444.178-.359.896.445zM32.22 26.99l-.895-.444.178-.359.895.445zM42.968 32.328l-.895-.445.178-.358.895.445zM39.386 30.549l-.896-.445.178-.359.895.445zM37.595 29.66l-.896-.445.178-.358.895.444zM28.638 25.212l-.896-.445.178-.358.896.445zM40.459 30.638l.895.445-.177.358-.896-.445zM44.176 30.11l.287.957-.383.115-.288-.958zM39.2 14.9l.383-.115.289.957-.383.116zM42.072 24.48l.383-.116.288.958-.383.115zM42.167 23.4l-.383.115-.288-.957.383-.115zM40.638 19.686l-.288-.957.383-.115.288.957zM40.155 16.7l.288.957-.384.115-.287-.958zM41.592 21.485l-.383.115-.288-.958.383-.115zM43.89 29.147l-.383.115-.288-.957.383-.116zM43.316 27.232l-.383.115-.288-.957.383-.116zM62.039 28.174l.384.11-.273.961-.385-.11zM63.512 24.436l-.272.963-.385-.11.273-.962zM63.676 22.4l.384.11-.273.962-.385-.11zM65.312 16.628l.385.11-.273.962-.385-.11zM62.693 27.324l-.385-.11.274-.962.384.11zM61.493 30.097l.385.11-.274.961-.385-.11zM64.33 21.551l-.385-.11.273-.961.385.11zM64.876 19.627l-.385-.11.273-.961.385.11zM51.937 13.463h1v.4h-1zM47.937 13.463h1v.4h-1zM59.937 13.463h1v.4h-1zM55.937 13.463h1v.4h-1zM57.937 13.463h1v.4h-1zM53.937 13.463h1v.4h-1zM43.937 13.463h1v.4h-1zM41.937 13.463h1v.4h-1zM61.937 13.463h1v.4h-1zM63.937 13.463h1v.4h-1zM49.937 13.463h1v.4h-1zM45.937 13.463h1v.4h-1zM30.25 18.438l.198.347-.869.496-.198-.348zM28.512 19.427l.198.347-.868.496-.199-.348zM26.774 20.417l.198.347-.869.496-.198-.348zM37.202 14.48l.199.347-.87.495-.197-.347zM31.988 17.448l.198.347-.868.495-.198-.347zM35.465 15.468l.198.348-.869.495-.198-.347zM33.726 16.458l.198.348-.868.495-.199-.347zM78.762 20.22l.88.474-.189.352-.88-.473zM71.713 16.435l.881.473-.19.353-.88-.473zM73.475 17.381l.881.474-.189.352-.88-.473zM68.19 14.542l.88.473-.19.353-.88-.474zM77 19.274l.88.474-.189.352-.881-.473zM75.238 18.327l.88.474-.189.352-.88-.473zM69.951 15.49l.881.472-.19.353-.88-.473z"
       id="path78" />
  </g>
  <!---->
  <g
     data-v-423bf9ae=""
     id="561562dc-f2a3-4a74-ba13-c29bc32e44f6"
     fill="#ffffff"
     transform="matrix(0.78830111,0,0,1.0605536,96.220568,65.500173)"
     style="fill:#ffffff">
    <path
       d="m 0.28,3.68 v 0 0 Q 0.28,3.64 0.3,3.6 v 0 0 Q 0.32,3.56 0.41,3.5 v 0 0 Q 0.5,3.44 0.64,3.44 v 0 h 0.38 v 0 q 0.34,0 1.09,0.05 v 0 0 q 0.75,0.04 1.95,0.04 v 0 0 q 0.99,0 1.76,-0.04 v 0 0 Q 6.59,3.46 7.24,3.46 v 0 0 q 0.24,0 0.24,0.33 v 0 0 q 0,0.13 -0.03,0.32 v 0 0 Q 7.42,4.3 7.36,4.61 v 0 0 Q 7.31,4.93 7.28,5.22 v 0 0 Q 7.25,5.5 7.07,5.5 v 0 0 q -0.2,0 -0.2,-0.28 v 0 0 Q 6.87,4.3 6.23,4.26 v 0 0 Q 4.12,4.09 3.71,4.09 v 0 0 q -0.63,0 -0.78,0.15 v 0 0 Q 2.79,4.4 2.77,4.87 v 0 0 q 0,0.07 0,0.11 v 0 0 Q 2.73,5.74 2.73,7.32 v 0 0 q 0,0.69 0.25,0.7 v 0 0 q 0.07,0 0.19,0.01 v 0 0 q 0.12,0.01 0.16,0.01 v 0 0 q 0.1,0 0.3,-0.01 v 0 0 Q 3.82,8.02 3.93,8.02 v 0 h 0.44 v 0 q 0.84,0 1.11,-0.05 v 0 0 q 0.27,-0.05 0.5,-0.2 v 0 0 Q 6.1,7.69 6.17,7.57 v 0 0 Q 6.24,7.46 6.27,7.31 v 0 0 Q 6.3,7.15 6.34,7.08 v 0 0 Q 6.38,7.01 6.51,7.01 v 0 0 q 0.13,0 0.15,0.05 v 0 0 Q 6.69,7.1 6.69,7.24 v 0 0 q 0,0.1 -0.06,0.49 v 0 0 Q 6.57,8.12 6.57,8.4 v 0 0 q 0,0.27 0.05,0.65 v 0 0 q 0.04,0.39 0.04,0.5 v 0 0 q 0,0.22 -0.04,0.28 v 0 0 Q 6.57,9.9 6.47,9.9 v 0 0 q -0.24,0 -0.3,-0.35 v 0 0 q 0,-0.03 -0.01,-0.13 v 0 0 Q 6.15,9.32 6.14,9.28 v 0 0 Q 6.13,9.24 6.1,9.16 v 0 0 Q 6.08,9.09 6.05,9.04 v 0 0 Q 6.02,9 5.98,8.95 v 0 0 Q 5.94,8.9 5.87,8.88 v 0 0 Q 5.67,8.79 5.17,8.74 v 0 0 Q 4.66,8.68 4.51,8.68 v 0 H 3.29 v 0 q -0.57,0 -0.57,0.27 v 0 0 q 0,0.4 -0.02,1.01 v 0 0 q -0.01,0.61 -0.01,1 v 0 0 q 0,0.1 -0.01,0.29 v 0 0 q -0.01,0.19 -0.01,0.27 v 0 0 q 0,0.28 0.06,0.56 v 0 0 q 0.06,0.28 0.33,0.59 v 0 0 q 0.27,0.31 0.73,0.31 v 0 0 q 0.42,0 0.42,0.25 v 0 0 q 0,0.04 -0.02,0.1 v 0 0 q -0.03,0.05 -0.14,0.11 v 0 0 Q 3.95,13.5 3.78,13.5 v 0 0 q -0.22,0 -0.71,-0.06 v 0 0 Q 2.59,13.38 2.42,13.38 v 0 0 q -0.39,0 -0.87,0.05 v 0 0 q -0.49,0.04 -0.82,0.04 v 0 0 q -0.28,0 -0.28,-0.16 v 0 0 q 0,-0.18 0.06,-0.22 v 0 0 q 0.06,-0.04 0.54,-0.21 v 0 0 Q 1.41,12.75 1.5,12.13 v 0 0 Q 1.58,11.51 1.6,9.6 v 0 0 q 0,-0.74 0,-1.16 v 0 0 q 0,-0.38 0.02,-1.18 v 0 0 Q 1.64,6.45 1.64,6.01 v 0 -0.82 0 q 0,-0.92 -0.66,-1.23 v 0 0 Q 0.88,3.92 0.74,3.9 v 0 0 Q 0.6,3.88 0.51,3.88 v 0 0 q -0.09,0 -0.16,-0.05 v 0 0 Q 0.28,3.78 0.28,3.68 Z m 13.93,9.65 v 0 0 q 0,-0.2 0.21,-0.27 v 0 0 q 0.45,-0.17 0.78,-0.75 v 0 0 q 0.34,-0.58 1.67,-3.48 v 0 0 q 1.37,-2.96 2.42,-5.2 v 0 0 q 0.1,-0.21 0.18,-0.27 v 0 0 Q 19.54,3.3 19.71,3.3 v 0 0 q 0.13,0 0.17,0.06 v 0 0 q 0.04,0.06 0.18,0.46 v 0 0 q 0.09,0.24 0.15,0.41 v 0 0 q 0.06,0.17 0.2,0.54 v 0 0 q 0.14,0.38 0.31,0.79 v 0 0 q 0.45,1.1 1.55,3.66 v 0 0 q 1.1,2.55 1.19,2.76 v 0 0 q 0.24,0.48 0.54,0.73 v 0 0 q 0.29,0.24 0.51,0.26 v 0 0 q 0.21,0.02 0.36,0.07 v 0 0 q 0.15,0.05 0.15,0.22 v 0 0 q 0,0.21 -0.38,0.21 v 0 0 q -0.15,0 -0.6,-0.04 v 0 0 q -0.45,-0.05 -0.66,-0.05 v 0 0 q -0.27,0 -0.69,0.03 v 0 0 q -0.42,0.03 -0.61,0.03 v 0 0 q -0.44,0 -0.56,-0.04 v 0 0 q -0.11,-0.03 -0.11,-0.16 v 0 0 q 0,-0.09 0.11,-0.16 v 0 0 Q 21.63,13.02 21.76,13 v 0 0 q 0.12,-0.02 0.23,-0.13 v 0 0 q 0.12,-0.1 0.12,-0.28 v 0 0 q 0,-0.31 -0.35,-1.26 v 0 0 q -0.35,-0.96 -0.59,-1.4 v 0 0 Q 21.04,9.69 20.59,9.69 v 0 0 q -0.07,0 -0.61,0.01 v 0 0 Q 19.43,9.72 18.9,9.72 v 0 h -0.74 v 0 q -0.63,0 -0.79,0.07 v 0 0 q -0.16,0.07 -0.29,0.33 v 0 0 Q 17,10.3 16.8,10.7 v 0 0 q -0.2,0.4 -0.27,0.56 v 0 0 q -0.07,0.15 -0.17,0.39 v 0 0 q -0.11,0.25 -0.14,0.4 v 0 0 q -0.04,0.14 -0.04,0.26 v 0 0 q 0,0.32 0.16,0.49 v 0 0 q 0.17,0.16 0.36,0.18 v 0 0 q 0.2,0.03 0.36,0.08 v 0 0 q 0.16,0.06 0.16,0.2 v 0 0 q 0,0.1 -0.04,0.14 v 0 0 q -0.04,0.05 -0.2,0.05 v 0 0 q -0.08,0 -0.48,0 v 0 0 q -0.4,-0.01 -0.68,-0.01 v 0 0 q -0.31,0 -0.69,0.03 v 0 0 q -0.39,0.03 -0.51,0.03 v 0 0 q -0.41,0 -0.41,-0.17 z m 3.51,-4.62 v 0 0 q 0,0.18 0.13,0.22 v 0 0 q 0.13,0.04 0.59,0.04 v 0 h 0.43 L 20.2,8.96 v 0 q 0.55,0 0.55,-0.22 v 0 0 q 0,-0.19 -0.69,-1.73 v 0 0 Q 19.38,5.46 19.19,5.46 v 0 0 q -0.12,0 -0.79,1.55 v 0 0 q -0.68,1.54 -0.68,1.7 z M 32.23,8.9 v 0 0 q 0,-1.52 0.59,-2.74 v 0 0 Q 33.4,4.94 34.63,4.19 v 0 0 q 1.22,-0.75 2.9,-0.75 v 0 0 q 0.86,0 1.73,0.26 v 0 0 q 0.86,0.25 1.38,0.5 v 0 l 0.52,0.27 v 0 q 0.04,0 0.14,-0.07 v 0 0 q 0.1,-0.07 0.15,-0.07 v 0 0 q 0.07,0 0.14,0.05 v 0 0 q 0.07,0.06 0.07,0.17 v 0 0 q 0.02,0.41 0.07,0.86 v 0 0 q 0.05,0.46 0.09,0.75 v 0 0 q 0.04,0.29 0.04,0.35 v 0 0 q 0,0.25 -0.17,0.25 v 0 0 q -0.12,0 -0.24,-0.19 v 0 0 Q 40.1,4.02 37.53,4.02 v 0 0 q -1.75,0 -2.87,1.12 v 0 0 q -1.12,1.12 -1.12,2.92 v 0 0 q 0,1 0.26,1.87 v 0 0 q 0.26,0.86 0.79,1.58 v 0 0 q 0.52,0.73 1.45,1.15 v 0 0 q 0.92,0.42 2.15,0.42 v 0 0 q 2.02,0 3.39,-2.1 v 0 0 q 0.06,-0.1 0.21,-0.1 v 0 0 q 0.13,0 0.13,0.19 v 0 0 q 0,0.16 -0.05,0.42 v 0 0 q -0.05,0.26 -0.12,0.57 v 0 0 q -0.07,0.32 -0.09,0.39 v 0 0 q -0.02,0.15 -0.22,0.25 v 0 0 q -0.76,0.36 -1.18,0.54 v 0 0 q -0.43,0.19 -1.09,0.33 v 0 0 q -0.66,0.15 -1.34,0.15 v 0 0 q -1.22,0 -2.2,-0.29 v 0 0 q -0.98,-0.3 -1.6,-0.77 v 0 0 Q 33.4,12.18 32.98,11.54 v 0 0 Q 32.56,10.91 32.4,10.25 v 0 0 Q 32.23,9.6 32.23,8.9 Z M 50.19,3.65 v 0 0 q 0,-0.19 0.39,-0.19 v 0 0 q 0.06,0 0.18,0.01 v 0 0 q 0.13,0.02 0.2,0.02 v 0 0 q 0.04,0 1.32,0.03 v 0 0 q 1.27,0.04 2.1,0.04 v 0 0 q 0.29,0 1.45,-0.03 v 0 0 Q 56.98,3.5 57.18,3.5 v 0 0 q 0.26,0 0.26,0.32 v 0 0 q 0,0.09 -0.08,0.56 v 0 0 q -0.09,0.46 -0.09,0.87 v 0 0 q 0,0.13 -0.07,0.22 v 0 0 q -0.07,0.09 -0.15,0.09 v 0 0 q -0.21,0 -0.21,-0.3 v 0 0 q 0,-0.37 -0.24,-0.68 v 0 0 Q 56.36,4.27 56.01,4.26 v 0 0 q -1.26,-0.1 -1.93,-0.1 v 0 h -0.36 v 0 q -0.73,0 -0.85,0.1 v 0 0 q -0.12,0.11 -0.15,0.75 v 0 0 q -0.05,1.01 -0.05,2.34 v 0 0 q 0,0.7 0.26,0.71 v 0 h 0.35 0.59 0.44 v 0 q 0.84,0 1.12,-0.05 v 0 0 q 0.28,-0.06 0.5,-0.21 v 0 0 Q 56.2,7.62 56.25,7.28 v 0 0 q 0.04,-0.24 0.2,-0.24 v 0 0 q 0.12,0 0.15,0.04 v 0 0 q 0.03,0.05 0.03,0.19 v 0 0 q 0,0.09 -0.06,0.64 v 0 0 q -0.05,0.55 -0.05,0.83 v 0 0 q 0,0.26 0.02,0.5 v 0 0 q 0.02,0.24 0.02,0.35 v 0 0 q 0,0.35 -0.1,0.35 v 0 0 q -0.21,0 -0.31,-0.34 v 0 0 Q 55.96,9.02 55.8,8.92 v 0 0 q -0.29,-0.2 -1.34,-0.2 v 0 0 q -0.42,0 -0.68,0 v 0 0 q -0.26,0 -0.33,-0.01 v 0 0 q -0.08,0 -0.13,0 v 0 0 q -0.05,0 -0.09,0 v 0 0 q -0.58,0 -0.58,0.26 v 0 0 q 0,0.41 -0.01,1.02 v 0 0 q -0.01,0.61 -0.01,1 v 0 0.56 0 q 0,1.01 0.33,1.11 v 0 0 q 0.35,0.11 0.6,0.11 v 0 0 q 1.05,0 1.85,-0.1 v 0 0 q 0.79,-0.1 1.19,-0.25 v 0 0 q 0.39,-0.14 0.66,-0.32 v 0 0 q 0.27,-0.17 0.34,-0.32 v 0 0 q 0.08,-0.15 0.16,-0.24 v 0 0 q 0.07,-0.1 0.16,-0.1 v 0 0 q 0.17,0 0.17,0.24 v 0 0 q 0,0.6 -0.61,1.21 v 0 0 q -0.6,0.62 -1.05,0.62 v 0 0 q -1,0 -2.27,-0.07 v 0 0 q -1.27,-0.07 -1.58,-0.07 v 0 0 q -0.39,0 -0.98,0.06 v 0 0 q -0.58,0.07 -0.92,0.07 v 0 0 q -0.29,0 -0.29,-0.14 v 0 0 q 0,-0.13 0,-0.17 v 0 0 q 0,-0.04 0.04,-0.07 v 0 0 q 0.04,-0.03 0.09,-0.04 v 0 0 q 0.05,0 0.18,-0.05 v 0 0 q 0.13,-0.04 0.29,-0.11 v 0 0 q 0.33,-0.17 0.44,-0.66 v 0 0 q 0.1,-0.49 0.1,-2.05 v 0 -1.74 0 q 0,-0.38 0.03,-1.18 v 0 0 Q 51.58,6.5 51.58,6.05 v 0 0 q 0,-0.38 -0.03,-1.28 v 0 0 Q 51.53,4.37 51.2,4.14 v 0 0 Q 50.86,3.92 50.41,3.91 v 0 0 q -0.22,0 -0.22,-0.26 z M 75.63,3.7 v 0 0 q 0,-0.23 0.4,-0.23 v 0 h 2.33 v 0 q 0.32,0 0.74,-0.02 v 0 0 q 0.42,-0.02 0.66,-0.02 v 0 0 q 1.26,0 2.15,0.64 v 0 0 q 0.9,0.63 0.9,1.71 v 0 0 q 0,0.72 -0.27,1.25 v 0 0 q -0.28,0.54 -0.6,0.78 v 0 0 q -0.33,0.24 -0.61,0.41 v 0 0 Q 81.06,8.4 81.06,8.46 v 0 0 q 0,0.16 1.18,1.81 v 0 0 q 1.17,1.64 1.61,2.11 v 0 0 q 0.53,0.65 1.28,0.65 v 0 0 q 0.2,0 0.2,0.17 v 0 0 q 0,0.21 -0.17,0.28 v 0 0 q -0.17,0.07 -0.87,0.07 v 0 0 q -0.65,0 -1.2,-0.32 v 0 0 q -0.7,-0.41 -2.37,-3.14 v 0 0 Q 80.63,9.94 80.58,9.87 v 0 0 Q 79.91,8.78 79.55,8.78 v 0 h -0.3 -0.85 v 0 q -0.17,0 -0.2,0.14 v 0 0 q -0.04,0.14 -0.04,0.85 v 0 0 q 0,0.67 0,1.11 v 0 0 q 0,0.43 0.01,0.55 v 0 0 q 0.01,0.12 0.01,0.2 v 0 0 q 0,0.07 0,0.12 v 0 0 q 0,0.57 0.26,0.88 v 0 0 q 0.27,0.32 0.6,0.37 v 0 0 q 0.33,0.05 0.59,0.11 v 0 0 q 0.27,0.06 0.27,0.2 v 0 0 q 0,0.23 -0.25,0.23 v 0 0 q -0.02,0 -0.97,-0.05 v 0 0 q -0.95,-0.05 -1.04,-0.05 v 0 0 q -0.4,0 -0.96,0.03 v 0 0 Q 76.12,13.5 76.1,13.5 v 0 0 q -0.29,0 -0.29,-0.23 v 0 0 q 0,-0.15 0.18,-0.22 v 0 0 q 0.18,-0.06 0.41,-0.09 v 0 0 q 0.22,-0.02 0.4,-0.3 v 0 0 q 0.19,-0.28 0.19,-0.8 v 0 0 q 0,-0.37 0,-1.96 v 0 0 Q 77,8.3 77,7.45 v 0 0 Q 77,6.58 76.99,5.86 v 0 0 q 0,-0.72 0,-0.78 v 0 0 q 0,-0.52 -0.21,-0.79 v 0 0 Q 76.57,4.02 76.31,3.98 v 0 0 Q 76.05,3.95 75.84,3.89 v 0 0 Q 75.63,3.84 75.63,3.7 Z m 2.53,1.84 v 0.4 0 q 0,1.44 0.02,1.78 v 0 0 q 0.01,0.34 0.09,0.4 v 0 0 q 0.21,0.13 0.61,0.13 v 0 h 0.14 0.4 v 0 q 1.19,0 1.7,-0.55 v 0 0 q 0.51,-0.55 0.51,-1.4 v 0 0 q 0,-0.87 -0.68,-1.58 v 0 0 Q 80.28,4 78.9,4 v 0 0 q -0.51,0 -0.63,0.28 v 0 0 Q 78.16,4.55 78.16,5.54 Z M 92.68,3.65 v 0 0 q 0,-0.19 0.39,-0.19 v 0 0 q 0.06,0 0.18,0.01 v 0 0 q 0.13,0.02 0.2,0.02 v 0 0 q 0.04,0 1.32,0.03 v 0 0 q 1.27,0.04 2.1,0.04 v 0 0 q 0.29,0 1.45,-0.03 v 0 0 Q 99.47,3.5 99.67,3.5 v 0 0 q 0.26,0 0.26,0.32 v 0 0 q 0,0.09 -0.08,0.56 v 0 0 q -0.09,0.46 -0.09,0.87 v 0 0 q 0,0.13 -0.07,0.22 v 0 0 q -0.07,0.09 -0.15,0.09 v 0 0 q -0.21,0 -0.21,-0.3 v 0 0 q 0,-0.37 -0.24,-0.68 v 0 0 Q 98.85,4.27 98.5,4.26 v 0 0 q -1.26,-0.1 -1.93,-0.1 v 0 h -0.36 v 0 q -0.73,0 -0.85,0.1 v 0 0 q -0.12,0.11 -0.15,0.75 v 0 0 q -0.05,1.01 -0.05,2.34 v 0 0 q 0,0.7 0.26,0.71 v 0 h 0.35 0.59 0.44 v 0 q 0.84,0 1.12,-0.05 v 0 0 Q 98.2,7.95 98.42,7.8 v 0 0 q 0.27,-0.18 0.32,-0.52 v 0 0 q 0.04,-0.24 0.2,-0.24 v 0 0 q 0.12,0 0.15,0.04 v 0 0 q 0.03,0.05 0.03,0.19 v 0 0 q 0,0.09 -0.06,0.64 v 0 0 q -0.05,0.55 -0.05,0.83 v 0 0 q 0,0.26 0.02,0.5 v 0 0 q 0.02,0.24 0.02,0.35 v 0 0 q 0,0.35 -0.1,0.35 v 0 0 q -0.21,0 -0.31,-0.34 v 0 0 Q 98.45,9.02 98.29,8.92 v 0 0 Q 98,8.72 96.95,8.72 v 0 0 q -0.42,0 -0.68,0 v 0 0 q -0.26,0 -0.33,-0.01 v 0 0 q -0.08,0 -0.13,0 v 0 0 q -0.05,0 -0.09,0 v 0 0 q -0.58,0 -0.58,0.26 v 0 0 q 0,0.41 -0.01,1.02 v 0 0 q -0.01,0.61 -0.01,1 v 0 0.56 0 q 0,1.01 0.33,1.11 v 0 0 q 0.35,0.11 0.6,0.11 v 0 0 q 1.05,0 1.85,-0.1 v 0 0 q 0.79,-0.1 1.19,-0.25 v 0 0 q 0.39,-0.14 0.66,-0.32 v 0 0 q 0.27,-0.17 0.34,-0.32 v 0 0 q 0.08,-0.15 0.16,-0.24 v 0 0 q 0.07,-0.1 0.16,-0.1 v 0 0 q 0.17,0 0.17,0.24 v 0 0 q 0,0.6 -0.61,1.21 v 0 0 q -0.6,0.62 -1.05,0.62 v 0 0 q -1,0 -2.27,-0.07 v 0 0 q -1.27,-0.07 -1.58,-0.07 v 0 0 q -0.39,0 -0.98,0.06 v 0 0 q -0.58,0.07 -0.92,0.07 v 0 0 q -0.29,0 -0.29,-0.14 v 0 0 q 0,-0.13 0,-0.17 v 0 0 q 0,-0.04 0.04,-0.07 v 0 0 q 0.04,-0.03 0.09,-0.04 v 0 0 q 0.05,0 0.18,-0.05 v 0 0 q 0.13,-0.04 0.29,-0.11 v 0 0 q 0.33,-0.17 0.44,-0.66 v 0 0 q 0.1,-0.49 0.1,-2.05 v 0 -1.74 0 q 0,-0.38 0.03,-1.18 v 0 0 Q 94.07,6.5 94.07,6.05 v 0 0 q 0,-0.38 -0.03,-1.28 v 0 0 Q 94.02,4.37 93.69,4.14 v 0 0 Q 93.35,3.92 92.9,3.91 v 0 0 q -0.22,0 -0.22,-0.26 z m 15.79,5.25 v 0 0 q 0,-1.52 0.59,-2.74 v 0 0 q 0.59,-1.22 1.81,-1.97 v 0 0 q 1.23,-0.75 2.91,-0.75 v 0 0 q 0.85,0 1.72,0.26 v 0 0 q 0.87,0.25 1.39,0.5 v 0 l 0.51,0.27 v 0 q 0.05,0 0.14,-0.07 v 0 0 q 0.1,-0.07 0.16,-0.07 v 0 0 q 0.07,0 0.14,0.05 v 0 0 q 0.07,0.06 0.07,0.17 v 0 0 q 0.01,0.41 0.06,0.86 v 0 0 q 0.05,0.46 0.09,0.75 v 0 0 q 0.04,0.29 0.04,0.35 v 0 0 q 0,0.25 -0.16,0.25 v 0 0 q -0.13,0 -0.24,-0.19 v 0 0 q -1.36,-2.55 -3.92,-2.55 v 0 0 q -1.75,0 -2.87,1.12 v 0 0 q -1.12,1.12 -1.12,2.92 v 0 0 q 0,1 0.26,1.87 v 0 0 q 0.26,0.86 0.78,1.58 v 0 0 q 0.53,0.73 1.45,1.15 v 0 0 q 0.92,0.42 2.16,0.42 v 0 0 q 2.01,0 3.38,-2.1 v 0 0 q 0.06,-0.1 0.21,-0.1 v 0 0 q 0.13,0 0.13,0.19 v 0 0 q 0,0.16 -0.05,0.42 v 0 0 q -0.05,0.26 -0.12,0.57 v 0 0 q -0.07,0.32 -0.08,0.39 v 0 0 q -0.03,0.15 -0.23,0.25 v 0 0 q -0.75,0.36 -1.18,0.54 v 0 0 q -0.43,0.19 -1.08,0.33 v 0 0 q -0.66,0.15 -1.35,0.15 v 0 0 q -1.22,0 -2.2,-0.29 v 0 0 q -0.98,-0.3 -1.6,-0.77 v 0 0 q -0.62,-0.48 -1.04,-1.12 v 0 0 q -0.42,-0.63 -0.59,-1.29 v 0 0 Q 108.47,9.6 108.47,8.9 Z m 18.3,-0.21 v 0 0 q 0,-2.35 1.41,-3.85 v 0 0 q 1.42,-1.51 4.01,-1.51 v 0 0 q 1.2,0 2.17,0.35 v 0 0 q 0.96,0.35 1.52,0.86 v 0 0 q 0.56,0.51 0.94,1.17 v 0 0 q 0.38,0.66 0.52,1.21 v 0 0 q 0.14,0.56 0.14,1.03 v 0 0 q 0,1.91 -0.74,3.21 v 0 0 q -0.74,1.31 -1.95,1.91 v 0 0 q -1.22,0.59 -2.8,0.59 v 0 0 q -1.66,0 -2.87,-0.72 v 0 0 q -1.22,-0.73 -1.78,-1.84 v 0 0 Q 126.77,10 126.77,8.69 Z M 128,7.98 v 0 0 q 0,0.56 0.16,1.21 v 0 0 q 0.15,0.65 0.5,1.35 v 0 0 q 0.35,0.69 0.85,1.24 v 0 0 q 0.49,0.55 1.26,0.91 v 0 0 q 0.76,0.36 1.67,0.36 v 0 0 q 0.48,0 1,-0.15 v 0 0 q 0.53,-0.15 1.04,-0.45 v 0 0 q 0.52,-0.31 0.93,-0.75 v 0 0 q 0.4,-0.44 0.66,-1.08 v 0 0 q 0.26,-0.64 0.26,-1.38 v 0 0 q 0,-2.53 -1.33,-3.94 v 0 0 q -1.33,-1.41 -3.29,-1.41 v 0 0 q -1.54,0 -2.62,1.04 v 0 0 Q 128,5.96 128,7.98 Z m 17.71,0.85 v 0 0 q 0,-1.52 0.61,-2.74 v 0 0 q 0.61,-1.22 1.87,-1.97 v 0 0 q 1.26,-0.75 3,-0.75 v 0 0 q 0.67,0 1.26,0.11 v 0 0 q 0.58,0.1 0.96,0.24 v 0 0 q 0.38,0.14 0.66,0.29 v 0 0 q 0.28,0.15 0.43,0.25 v 0 0 q 0.14,0.11 0.17,0.11 v 0 0 q 0.04,0 0.19,-0.11 v 0 0 q 0.15,-0.1 0.2,-0.1 v 0 0 q 0.21,0 0.21,0.28 v 0 0 q 0.02,0.4 0.07,0.85 v 0 0 q 0.05,0.45 0.09,0.74 v 0 0 q 0.04,0.3 0.04,0.35 v 0 0 q 0,0.24 -0.17,0.24 v 0 0 q -0.17,0 -0.24,-0.17 v 0 0 q -0.49,-1.06 -1.63,-1.8 v 0 0 q -1.15,-0.73 -2.37,-0.73 v 0 0 q -1.75,0 -2.89,1.1 v 0 0 q -1.14,1.1 -1.14,3.04 v 0 0 q 0,1.29 0.47,2.43 v 0 0 q 0.48,1.13 1.45,1.87 v 0 0 q 0.98,0.74 2.24,0.74 v 0 0 q 1.07,0 1.95,-0.49 v 0 0 q 0.87,-0.49 0.97,-1.12 v 0 0 q 0.04,-0.33 0.04,-1.76 v 0 0 q 0,-0.55 -0.23,-0.78 v 0 0 Q 153.75,8.78 153.3,8.72 v 0 0 q -0.42,-0.04 -0.49,-0.17 v 0 0 Q 152.78,8.5 152.78,8.41 v 0 0 q 0,-0.15 0.25,-0.15 v 0 0 q 0.19,0 0.79,0.03 v 0 0 q 0.6,0.04 0.77,0.04 v 0 0 q 0.28,0 0.6,-0.01 v 0 0 q 0.32,0 0.52,0 v 0 h 0.21 v 0 q 0.22,0 0.22,0.12 v 0 0 q 0,0.1 -0.36,0.25 v 0 0 q -0.35,0.16 -0.39,0.4 v 0 0 q -0.1,0.6 -0.1,1.56 v 0 0 q 0,0.42 0.01,0.75 v 0 0 q 0.02,0.32 0.02,0.45 v 0 0 q 0.01,0.13 0.02,0.23 v 0 0 q 0.02,0.1 0.02,0.14 v 0 0 q 0,0.07 -0.11,0.11 v 0 0 q -0.1,0.03 -0.34,0.09 v 0 0 q -0.24,0.07 -0.43,0.18 v 0 l -0.1,0.06 v 0 q -0.1,0.07 -0.2,0.12 v 0 0 q -0.1,0.06 -0.26,0.14 v 0 0 q -0.16,0.09 -0.33,0.17 v 0 0 q -0.16,0.08 -0.37,0.17 v 0 0 q -0.21,0.1 -0.44,0.17 v 0 0 q -0.22,0.07 -0.46,0.12 v 0 0 q -0.24,0.06 -0.5,0.09 v 0 0 q -0.26,0.04 -0.51,0.04 v 0 0 q -1.52,0 -2.65,-0.42 v 0 0 q -1.13,-0.41 -1.74,-1.12 v 0 0 q -0.62,-0.7 -0.91,-1.53 v 0 0 q -0.3,-0.82 -0.3,-1.78 z m 18.12,-5.06 v 0 0 q 0,-0.09 0.1,-0.17 v 0 0 q 0.09,-0.07 0.25,-0.07 v 0 0 q 0.08,0 0.28,0.01 v 0 0 q 0.19,0 0.25,0 v 0 0 q 0.21,0 0.39,-0.01 v 0 0 q 0.18,-0.02 0.3,-0.02 v 0 0 q 0.12,0 0.29,0.08 v 0 0 q 0.17,0.08 0.2,0.16 v 0 0 q 0.02,0.04 0.15,0.19 v 0 0 q 0.13,0.15 0.34,0.39 v 0 0 q 0.21,0.23 0.37,0.46 v 0 0 q 1.91,2.48 5.1,5.98 v 0 0 q 0.08,0.09 0.2,0.22 v 0 0 q 0.12,0.13 0.17,0.19 v 0 0 q 0.05,0.06 0.11,0.12 v 0 0 q 0.05,0.05 0.09,0.08 v 0 0 q 0.03,0.02 0.06,0.02 v 0 0 q 0.14,0 0.14,-0.87 v 0 -1.64 0 q 0,-0.94 -0.01,-1.58 v 0 0 q 0,-0.65 -0.01,-0.93 v 0 0 q -0.01,-0.29 -0.01,-0.36 v 0 -0.1 0 q 0,-0.47 -0.06,-0.81 v 0 0 q -0.06,-0.34 -0.15,-0.52 v 0 0 Q 172.3,4.41 172.14,4.28 v 0 0 q -0.16,-0.12 -0.28,-0.16 v 0 0 q -0.11,-0.03 -0.32,-0.07 v 0 0 Q 171.33,4 171.25,3.98 v 0 0 q -0.28,-0.09 -0.28,-0.24 v 0 0 q 0,-0.21 0.26,-0.21 v 0 0 q 0.09,0 0.68,0.01 v 0 0 q 0.58,0 0.65,0 v 0 0 q 0.34,0 0.75,-0.01 v 0 0 q 0.42,-0.02 0.51,-0.02 v 0 0 q 0.24,0 0.33,0.05 v 0 0 q 0.09,0.05 0.09,0.19 v 0 0 q 0,0.06 -0.07,0.11 v 0 0 q -0.08,0.05 -0.16,0.08 v 0 0 Q 173.92,3.98 173.84,4 v 0 l -0.09,0.03 v 0 q -0.46,0.25 -0.46,1.58 v 0 0.54 0 q 0,1.06 -0.07,3.68 v 0 0 q -0.08,2.63 -0.08,3.25 v 0 0.28 0 q 0,0.32 -0.2,0.32 v 0 0 q -0.12,0 -0.22,-0.1 v 0 0 q -4.65,-5.39 -5.55,-6.41 v 0 0 q -0.91,-1.01 -1,-1.01 v 0 0 q -0.14,0 -0.14,0.95 v 0 0 q 0,1.33 -0.06,2.86 v 0 0 q -0.06,1.54 -0.06,1.68 v 0 0 q 0,0.63 0.22,0.96 v 0 0 q 0.22,0.33 0.47,0.37 v 0 0 q 0.25,0.04 0.47,0.09 v 0 0 q 0.22,0.05 0.22,0.19 v 0 0 q 0,0.15 -0.05,0.19 v 0 0 q -0.05,0.05 -0.18,0.05 v 0 0 q -0.1,0 -0.44,-0.02 v 0 0 q -0.34,-0.01 -1.06,-0.01 v 0 0 q -0.12,0 -0.51,0.01 v 0 0 q -0.4,0.02 -0.68,0.02 v 0 0 q -0.3,0 -0.3,-0.23 v 0 0 q 0,-0.12 0.18,-0.16 v 0 0 q 0.18,-0.03 0.45,-0.22 v 0 0 q 0.26,-0.18 0.4,-0.68 v 0 0 q 0.09,-0.32 0.21,-2.61 v 0 0 q 0.13,-2.28 0.13,-3.15 v 0 0 q 0,-1.2 -0.34,-1.8 v 0 0 q -0.33,-0.59 -1.09,-0.67 v 0 0 Q 163.83,3.96 163.83,3.77 Z M 182,3.71 v 0 0 q 0,-0.21 0.39,-0.21 v 0 0 q 0.14,0 0.65,0.03 v 0 0 q 0.5,0.03 0.93,0.03 v 0 0 q 0.27,0 0.51,-0.02 v 0 0 q 0.25,-0.01 0.73,-0.01 v 0 0 q 0.37,0 0.37,0.19 v 0 0 q 0,0.12 -0.64,0.38 v 0 0 q -0.45,0.18 -0.45,1.61 v 0 0 q 0,1.89 -0.02,3.34 v 0 0 q -0.02,1.45 -0.02,1.84 v 0 0 q 0,1.18 0.35,1.7 v 0 0 q 0.31,0.43 0.67,0.43 v 0 0 q 0.03,0 0.14,0.01 v 0 0 q 0.11,0 0.14,0 v 0 0 q 0.1,0 0.2,0.05 v 0 0 q 0.1,0.05 0.1,0.11 v 0 0 q 0,0.15 -0.08,0.2 v 0 0 q -0.08,0.05 -0.27,0.05 v 0 0 q -0.42,0 -0.78,-0.03 v 0 0 q -0.36,-0.03 -0.55,-0.03 v 0 0 q -0.4,0 -0.86,0.04 v 0 0 q -0.46,0.03 -0.68,0.03 v 0 0 q -0.63,0 -0.63,-0.21 v 0 0 q 0,-0.12 0.13,-0.17 v 0 0 q 0.13,-0.05 0.3,-0.07 v 0 0 q 0.17,-0.02 0.35,-0.18 v 0 0 q 0.18,-0.16 0.25,-0.47 v 0 0 q 0.03,-0.1 0.09,-1.59 v 0 0 q 0.07,-1.49 0.07,-2.15 v 0 -0.8 0 q 0,-0.18 0,-0.69 v 0 0 Q 183.4,6.61 183.4,6.3 v 0 -0.64 0 q 0,-0.62 -0.06,-1.03 v 0 0 Q 183.3,4.3 182.97,4.12 v 0 0 q -0.33,-0.19 -0.68,-0.2 v 0 0 Q 182,3.91 182,3.71 Z m 11.59,1.61 v 0 0 q 0,-0.56 0.14,-1.44 v 0 0 q 0,-0.03 0.01,-0.1 v 0 0 q 0.01,-0.07 0.01,-0.09 v 0 0 q 0.01,-0.02 0.02,-0.07 v 0 0 q 0,-0.05 0.02,-0.07 v 0 0 q 0.01,-0.02 0.03,-0.06 v 0 0 q 0.02,-0.03 0.05,-0.05 v 0 0 q 0.03,-0.01 0.07,-0.02 v 0 0 q 0.04,-0.02 0.1,-0.03 v 0 0 q 0.06,0 0.13,0 v 0 0 q 0.22,0 1.18,0.05 v 0 0 q 0.96,0.06 2.76,0.06 v 0 0 q 3.08,0 4.32,-0.07 v 0 0 q 0.01,0 0.05,-0.01 v 0 0 q 0.03,0 0.04,0 v 0 0 q 0.16,0 0.21,0.08 v 0 0 q 0.06,0.08 0.06,0.15 v 0 0 q 0,0.1 0.04,0.59 v 0 0 q 0.04,0.49 0.04,0.55 v 0 0 q 0,0.35 -0.04,0.44 v 0 0 q -0.04,0.09 -0.18,0.09 v 0 0 q -0.11,0 -0.15,-0.17 v 0 0 q -0.12,-0.4 -0.2,-0.55 v 0 0 q -0.08,-0.15 -0.36,-0.26 v 0 0 q -0.28,-0.11 -0.86,-0.11 v 0 h -1.82 v 0 q -0.33,0 -0.41,0.13 v 0 0 q -0.08,0.13 -0.08,0.76 v 0 0.69 0 q 0,1.88 -0.02,3.3 v 0 0 q -0.02,1.43 -0.02,1.82 v 0 0 q 0,0.2 -0.01,0.5 v 0 0 q 0,0.3 0,0.41 v 0 0 q 0,0.61 0.19,0.8 v 0 0 q 0.18,0.17 0.41,0.26 v 0 0 q 0.22,0.09 0.38,0.11 v 0 0 q 0.16,0.01 0.28,0.07 v 0 0 q 0.11,0.05 0.11,0.18 v 0 0 q 0,0.15 -0.07,0.19 v 0 0 q -0.07,0.05 -0.27,0.05 v 0 0 q -0.17,0 -0.74,-0.06 v 0 0 q -0.57,-0.06 -0.81,-0.06 v 0 0 q -0.17,0 -0.68,0.05 v 0 0 q -0.51,0.05 -0.75,0.05 v 0 0 q -0.52,0 -0.52,-0.22 v 0 0 q 0,-0.14 0.09,-0.19 v 0 0 q 0.08,-0.05 0.33,-0.09 v 0 0 q 0.24,-0.03 0.31,-0.04 v 0 0 q 0.48,-0.12 0.53,-0.56 v 0 0 q 0.14,-1.24 0.14,-5.3 v 0 l -0.01,-2.5 v 0 q 0,-0.27 -0.16,-0.33 v 0 0 q -0.15,-0.06 -0.91,-0.06 v 0 0 q -0.98,0 -1.47,0.05 v 0 0 q -0.5,0.06 -0.58,0.11 v 0 0 q -0.09,0.05 -0.2,0.19 v 0 0 q -0.13,0.16 -0.2,0.37 v 0 0 q -0.08,0.2 -0.1,0.33 v 0 0 Q 194,5.38 193.94,5.47 v 0 0 q -0.07,0.09 -0.19,0.09 v 0 0 q -0.16,0 -0.16,-0.24 z m 16.84,-1.61 v 0 0 q 0,-0.21 0.4,-0.21 v 0 0 q 0.14,0 0.64,0.03 v 0 0 q 0.5,0.03 0.94,0.03 v 0 0 q 0.26,0 0.51,-0.02 v 0 0 q 0.24,-0.01 0.72,-0.01 v 0 0 q 0.38,0 0.38,0.19 v 0 0 q 0,0.12 -0.65,0.38 v 0 0 q -0.44,0.18 -0.44,1.61 v 0 0 q 0,1.89 -0.02,3.34 v 0 0 q -0.03,1.45 -0.03,1.84 v 0 0 q 0,1.18 0.35,1.7 v 0 0 q 0.31,0.43 0.68,0.43 v 0 0 q 0.02,0 0.14,0.01 v 0 0 q 0.11,0 0.14,0 v 0 0 q 0.09,0 0.19,0.05 v 0 0 q 0.1,0.05 0.1,0.11 v 0 0 q 0,0.15 -0.08,0.2 v 0 0 q -0.07,0.05 -0.27,0.05 v 0 0 q -0.42,0 -0.78,-0.03 v 0 0 Q 213,13.38 212.8,13.38 v 0 0 q -0.39,0 -0.85,0.04 v 0 0 q -0.47,0.03 -0.69,0.03 v 0 0 q -0.63,0 -0.63,-0.21 v 0 0 q 0,-0.12 0.13,-0.17 v 0 0 q 0.14,-0.05 0.3,-0.07 v 0 0 q 0.17,-0.02 0.35,-0.18 v 0 0 q 0.19,-0.16 0.26,-0.47 v 0 0 q 0.02,-0.1 0.09,-1.59 v 0 0 q 0.06,-1.49 0.06,-2.15 v 0 -0.8 0 q 0,-0.18 0.01,-0.69 v 0 0 q 0,-0.51 0,-0.82 v 0 -0.64 0 q 0,-0.62 -0.05,-1.03 v 0 0 Q 211.74,4.3 211.41,4.12 v 0 0 q -0.33,-0.19 -0.68,-0.2 v 0 0 q -0.3,-0.01 -0.3,-0.21 z m 11.93,4.98 v 0 0 q 0,-2.35 1.42,-3.85 v 0 0 q 1.41,-1.51 4,-1.51 v 0 0 q 1.2,0 2.17,0.35 v 0 0 q 0.97,0.35 1.53,0.86 v 0 0 q 0.56,0.51 0.93,1.17 v 0 0 q 0.38,0.66 0.52,1.21 v 0 0 q 0.14,0.56 0.14,1.03 v 0 0 q 0,1.91 -0.74,3.21 v 0 0 q -0.74,1.31 -1.95,1.91 v 0 0 q -1.21,0.59 -2.8,0.59 v 0 0 q -1.66,0 -2.87,-0.72 v 0 0 q -1.21,-0.73 -1.78,-1.84 v 0 0 Q 222.36,10 222.36,8.69 Z m 1.23,-0.71 v 0 0 q 0,0.56 0.16,1.21 v 0 0 q 0.15,0.65 0.5,1.35 v 0 0 q 0.35,0.69 0.85,1.24 v 0 0 q 0.5,0.55 1.26,0.91 v 0 0 q 0.76,0.36 1.67,0.36 v 0 0 q 0.48,0 1,-0.15 v 0 0 q 0.53,-0.15 1.05,-0.45 v 0 0 q 0.51,-0.31 0.92,-0.75 v 0 0 q 0.41,-0.44 0.67,-1.08 v 0 0 q 0.25,-0.64 0.25,-1.38 v 0 0 q 0,-2.53 -1.33,-3.94 v 0 0 Q 229.26,3.89 227.3,3.89 v 0 0 q -1.54,0 -2.62,1.04 v 0 0 q -1.09,1.03 -1.09,3.05 z m 17.17,-4.21 v 0 0 q 0,-0.09 0.1,-0.17 v 0 0 q 0.09,-0.07 0.25,-0.07 v 0 0 q 0.08,0 0.28,0.01 v 0 0 q 0.19,0 0.25,0 v 0 0 q 0.21,0 0.39,-0.01 v 0 0 q 0.18,-0.02 0.3,-0.02 v 0 0 q 0.12,0 0.29,0.08 v 0 0 q 0.17,0.08 0.2,0.16 v 0 0 q 0.02,0.04 0.15,0.19 v 0 0 q 0.13,0.15 0.34,0.39 v 0 0 q 0.21,0.23 0.37,0.46 v 0 0 q 1.91,2.48 5.1,5.98 v 0 0 q 0.08,0.09 0.2,0.22 v 0 0 q 0.12,0.13 0.17,0.19 v 0 0 q 0.05,0.06 0.11,0.12 v 0 0 q 0.05,0.05 0.09,0.08 v 0 0 q 0.03,0.02 0.06,0.02 v 0 0 q 0.14,0 0.14,-0.87 v 0 -1.64 0 q 0,-0.94 -0.01,-1.58 v 0 0 q 0,-0.65 -0.01,-0.93 v 0 0 q -0.01,-0.29 -0.01,-0.36 v 0 -0.1 0 q 0,-0.47 -0.06,-0.81 v 0 0 Q 249.4,4.77 249.31,4.59 v 0 0 q -0.08,-0.18 -0.24,-0.31 v 0 0 q -0.16,-0.12 -0.28,-0.16 v 0 0 q -0.11,-0.03 -0.32,-0.07 v 0 0 Q 248.26,4 248.18,3.98 v 0 0 Q 247.9,3.89 247.9,3.74 v 0 0 q 0,-0.21 0.26,-0.21 v 0 0 q 0.09,0 0.68,0.01 v 0 0 q 0.58,0 0.65,0 v 0 0 q 0.34,0 0.75,-0.01 v 0 0 q 0.42,-0.02 0.51,-0.02 v 0 0 q 0.24,0 0.33,0.05 v 0 0 q 0.09,0.05 0.09,0.19 v 0 0 q 0,0.06 -0.07,0.11 v 0 0 q -0.08,0.05 -0.16,0.08 v 0 0 Q 250.85,3.98 250.77,4 v 0 l -0.09,0.03 v 0 q -0.46,0.25 -0.46,1.58 v 0 0.54 0 q 0,1.06 -0.07,3.68 v 0 0 q -0.08,2.63 -0.08,3.25 v 0 0.28 0 q 0,0.32 -0.2,0.32 v 0 0 q -0.12,0 -0.22,-0.1 v 0 0 Q 245,8.19 244.1,7.17 v 0 0 q -0.91,-1.01 -1,-1.01 v 0 0 q -0.14,0 -0.14,0.95 v 0 0 q 0,1.33 -0.06,2.86 v 0 0 q -0.06,1.54 -0.06,1.68 v 0 0 q 0,0.63 0.22,0.96 v 0 0 q 0.22,0.33 0.47,0.37 v 0 0 q 0.25,0.04 0.47,0.09 v 0 0 q 0.22,0.05 0.22,0.19 v 0 0 q 0,0.15 -0.05,0.19 v 0 0 q -0.05,0.05 -0.18,0.05 v 0 0 q -0.1,0 -0.44,-0.02 v 0 0 q -0.34,-0.01 -1.06,-0.01 v 0 0 q -0.12,0 -0.51,0.01 v 0 0 q -0.4,0.02 -0.68,0.02 v 0 0 q -0.3,0 -0.3,-0.23 v 0 0 q 0,-0.12 0.18,-0.16 v 0 0 q 0.18,-0.03 0.45,-0.22 v 0 0 q 0.26,-0.18 0.4,-0.68 v 0 0 q 0.09,-0.32 0.21,-2.61 v 0 0 q 0.13,-2.28 0.13,-3.15 v 0 0 q 0,-1.2 -0.34,-1.8 v 0 0 Q 241.7,4.06 240.94,3.98 v 0 0 q -0.18,-0.02 -0.18,-0.21 z"
       id="path81"
       style="fill:#ffffff" />
  </g>
</svg>
